<svg width="16" height="17" fill="none" xmlns="http://www.w3.org/2000/svg"><g clip-path="url(#clip0)" fill="#A1A6B5"><path d="M.334 3.449C2.53 5.309 6.383 8.58 7.515 9.6A.717.717 0 008 9.808a.72.72 0 00.483-.206c1.134-1.021 4.987-4.294 7.183-6.153a.333.333 0 00.047-.46 1.324 1.324 0 00-1.047-.514H1.333c-.409 0-.79.187-1.046.514a.333.333 0 00.047.46zm15.473 1.007a.332.332 0 00-.356.049 956.291 956.291 0 00-4.762 4.058.333.333 0 00.01.513c1.327 1.064 3.328 2.526 4.773 3.566a.332.332 0 00.347.026.333.333 0 00.181-.296V4.759a.333.333 0 00-.193-.303zM.528 12.642c1.445-1.04 3.447-2.502 4.774-3.566a.333.333 0 00.01-.512 962.51 962.51 0 00-4.763-4.06A.334.334 0 000 4.76v7.613a.333.333 0 00.528.27z"/><path d="M15.591 13.55c-1.395-1-3.966-2.86-5.5-4.106a.334.334 0 00-.43.007 70.22 70.22 0 00-.731.645c-.549.496-1.31.496-1.86 0-.179-.16-.43-.383-.732-.645a.332.332 0 00-.428-.007c-1.53 1.241-4.103 3.105-5.501 4.105a.335.335 0 00-.05.498c.252.272.608.428.974.428h13.334c.367 0 .722-.156.975-.428a.333.333 0 00-.05-.498z"/></g><defs><clipPath id="clip0"><path fill="#fff" transform="translate(0 .475)" d="M0 0h16v16H0z"/></clipPath></defs></svg>