<svg width="55" height="51" fill="none" xmlns="http://www.w3.org/2000/svg"><path d="M54.578 49.018L47.68 42.12a5.517 5.517 0 00-2.859-1.521V26.685a8.083 8.083 0 006.405-2.354 8.093 8.093 0 002.179-7.542 1.074 1.074 0 00-.812-.812 8.093 8.093 0 00-7.772 2.42v-5.622a6.648 6.648 0 002.618-5.304 6.654 6.654 0 00-3.118-5.653 1.075 1.075 0 00-1.148 0 6.654 6.654 0 00-3.119 5.653 6.65 6.65 0 002.618 5.304v1.41a7.216 7.216 0 00-6.7-1.918c-.404.091-.72.407-.811.811a7.219 7.219 0 001.943 6.727 7.208 7.208 0 005.569 2.108v4.315a8.798 8.798 0 00-8.548-2.86 3.446 3.446 0 00-3.406-2.952h-6.903l-3.216-4.42a6.101 6.101 0 00-1.66-1.556 5.196 5.196 0 003.196-4.79V7.082h1.656a1.074 1.074 0 100-2.148H22.43V3.213A3.068 3.068 0 0019.367.148h-5.079a3.068 3.068 0 00-3.065 3.065v1.72h-1.36a1.074 1.074 0 100 2.15h1.896V9.65c0 1.673.797 3.162 2.03 4.112a6.137 6.137 0 00-4.27 5.838v11.696a6.795 6.795 0 003.409 5.886v6.902H3.276a3.388 3.388 0 00-3.383 3.384 3.388 3.388 0 003.383 3.383H4.66a1.074 1.074 0 100-2.148H3.276a1.237 1.237 0 01-1.235-1.235c0-.681.554-1.236 1.235-1.236h10.726c.593 0 1.074-.48 1.074-1.074v-7.183c.402.074.814.115 1.237.115h2.128v6.948a3.67 3.67 0 01-3.665 3.665h-1.523a1.074 1.074 0 100 2.148h1.523a5.82 5.82 0 005.813-5.813V38.09h3.93v9.378a3.388 3.388 0 003.383 3.383 3.388 3.388 0 003.384-3.383V35.812A5.82 5.82 0 0025.472 30h-5.174v-2.752c.105.033.215.051.328.051h10.093a3.43 3.43 0 002.287-.872 8.79 8.79 0 002.586 5.973 8.788 8.788 0 007.08 2.547v5.657a5.514 5.514 0 00-2.841 1.517l-6.867 6.866a1.074 1.074 0 101.52 1.519l6.865-6.866a3.405 3.405 0 014.812 0l6.898 6.898a1.07 1.07 0 001.519 0c.42-.42.42-1.1 0-1.52zM42.655 19.76a5.076 5.076 0 01-4.031-1.476 5.072 5.072 0 01-1.476-4.031 5.074 5.074 0 014.032 1.475 5.074 5.074 0 011.475 4.032zm3.915-.085a5.947 5.947 0 014.855-1.718 5.949 5.949 0 01-1.718 4.854 5.946 5.946 0 01-4.855 1.718 6.089 6.089 0 01-.031-.545v-.21a5.945 5.945 0 011.749-4.1zM43.747 4.063A4.51 4.51 0 0145.29 7.47a4.51 4.51 0 01-1.544 3.408 4.509 4.509 0 01-1.544-3.408 4.51 4.51 0 011.544-3.408zM19.987 9.65a3.043 3.043 0 01-3.04 3.04 3.043 3.043 0 01-3.04-3.04V7.082h6.08V9.65zm-6.615-6.437c0-.505.41-.916.916-.916h5.079c.505 0 .916.41.916.916v1.72h-6.911v-1.72zm12.1 28.934a3.67 3.67 0 013.665 3.666v11.655c0 .68-.553 1.235-1.235 1.235a1.237 1.237 0 01-1.235-1.235V37.015c0-.592-.481-1.074-1.075-1.074h-9.28a4.652 4.652 0 01-4.565-3.794h13.725zm5.247-6.997h-9.611l-2.087-2.346a1.075 1.075 0 00-1.606 1.428l.734.824V30h-6.481V19.6a3.983 3.983 0 013.978-3.977 3.99 3.99 0 013.217 1.637l3.538 4.863c.202.279.525.443.868.443h7.45c.713 0 1.293.58 1.293 1.293 0 .712-.58 1.292-1.293 1.292zm11.908 7.641a6.655 6.655 0 01-5.516-1.912 6.655 6.655 0 01-1.912-5.516 6.653 6.653 0 015.516 1.912 6.649 6.649 0 011.957 4.664v.152a6.76 6.76 0 01-.045.7z" fill="#151E45"/></svg>